Coordinates
version=1
nRows=10
nColumns=63
inDegrees=yes

Units are S.I. units (second, meters, Newtons, ...)
If the header above contains a line with 'inDegrees', this indicates whether rotational values are in degrees (yes) or radians (no).

endheader
time	pelvis_tilt	pelvis_list	pelvis_rotation	pelvis_tx	pelvis_ty	pelvis_tz	hip_flexion_r	hip_adduction_r	hip_rotation_r	knee_angle_r	knee_angle_r_beta	ankle_angle_r	subtalar_angle_r	mtp_angle_r	hip_flexion_l	hip_adduction_l	hip_rotation_l	knee_angle_l	knee_angle_l_beta	ankle_angle_l	subtalar_angle_l	mtp_angle_l	L5_S1_Flex_Ext	L5_S1_Lat_Bending	L5_S1_axial_rotation	L4_L5_Flex_Ext	L4_L5_Lat_Bending	L4_L5_axial_rotation	L3_L4_Flex_Ext	L3_L4_Lat_Bending	L3_L4_axial_rotation	L2_L3_Flex_Ext	L2_L3_Lat_Bending	L2_L3_axial_rotation	L1_L2_Flex_Ext	L1_L2_Lat_Bending	L1_L2_axial_rotation	L1_T12_Flex_Ext	L1_T12_Lat_Bending	L1_T12_axial_rotation	Abs_r3	Abs_r2	Abs_r1	Abs_t1	Abs_t2	neck_flexion	neck_bending	neck_rotation	arm_flex_r	arm_add_r	arm_rot_r	elbow_flex_r	pro_sup_r	wrist_flex_r	wrist_dev_r	arm_flex_l	arm_add_l	arm_rot_l	elbow_flex_l	pro_sup_l	wrist_flex_l	wrist_dev_l
      3.75000000	    -49.06260224	      0.72560489	     -0.58855744	     -0.35511701	      0.98372373	      0.03031949	    110.97567102	     -8.34973054	      2.73774097	    106.04629318	      1.85085698	      4.72866587	     -3.02829239	      0.00000000	    108.46974079	     -6.45236148	      0.84699451	     64.99504221	      1.13437748	      7.81677694	      8.11557501	      0.00000000	     -0.08842841	     -0.16964966	      0.43846037	     -0.16422040	     -0.22563405	      0.46586414	     -0.14527903	     -0.41248619	      0.46586414	     -0.10106483	     -0.41248619	      0.38365282	     -0.08211462	     -0.34594959	      0.35624905	     -0.05052799	     -0.26278733	      0.32884528	     -0.63163528	     -1.91911092	      2.43858503	      0.00000000	      0.00000000	     -0.00000000	      0.00000000	      0.00000000	     66.20883826	     -8.48978839	      3.71284144	     34.70995849	     20.91114708	      0.00000000	      5.00000238	     69.32812619	     -4.99358093	     10.21105291	     30.25364550	     26.99977403	      0.00000000	      5.00000238
      3.75800000	    -49.01206216	      0.23375239	     -0.55056377	     -0.35512406	      0.98302303	      0.02909654	    112.81901571	     -8.65399076	      2.96180022	    108.67016812	      1.89665223	      6.47250119	     -1.91786526	      0.00000000	    106.47408844	     -6.04746418	      1.23007431	     62.63435997	      1.09317581	      6.61214671	      7.34120247	      0.00000000	     -0.08785904	     -0.06598716	      0.41541615	     -0.16316303	     -0.08776292	      0.44137966	     -0.14434362	     -0.16044118	      0.44137966	     -0.10041410	     -0.16044118	      0.36348914	     -0.08158591	     -0.13456101	      0.33752563	     -0.05020266	     -0.10221411	      0.31156212	     -0.62756837	     -0.74645994	      2.31042003	      0.00000000	      0.00000000	     -0.00000000	      0.00000000	      0.00000000	     66.54467367	     -8.62568342	      4.81900575	     34.67142256	     21.01931135	      0.00000000	      5.00000228	     69.01992270	     -4.84541099	      9.13934404	     30.34428191	     26.74566438	      0.00000000	      5.00000228
      3.76700000	    -48.99512599	     -0.25968502	     -0.95057273	     -0.35521599	      0.98255128	      0.02852182	    114.64907984	     -8.52621240	      2.96275006	    110.92858588	      1.93606906	      8.11817919	     -0.97447022	      0.00000000	    104.61776557	     -6.09295339	      1.80622797	     60.54806562	      1.05676310	      5.46027193	      6.30510328	      0.00000000	     -0.08791454	      0.03656692	      0.48035175	     -0.16326609	      0.04863401	      0.51037374	     -0.14443480	      0.08890882	      0.51037374	     -0.10047753	      0.08890882	      0.42030778	     -0.08163744	      0.07456727	      0.39028580	     -0.05023437	      0.05664217	      0.36026381	     -0.62796478	      0.41365237	      2.67157234	      0.00000000	      0.00000000	     -0.00000000	      0.00000000	      0.00000000	     66.89968026	     -8.84004337	      5.92709751	     34.64568542	     21.09567853	      0.00000000	      5.00000215	     68.69824951	     -4.63139130	      7.94720260	     30.51367728	     26.44167968	      0.00000000	      5.00000215
      3.77500000	    -49.01614475	     -0.65986281	     -1.36657889	     -0.35528592	      0.98219491	      0.02822390	    116.56377609	     -8.40084593	      2.78922203	    112.97384569	      1.97176558	      9.46659042	     -0.92805168	      0.00000000	    102.83090367	     -6.21282188	      2.41896028	     58.61840368	      1.02308415	      4.57962065	      5.55558949	      0.00000000	     -0.08541914	      0.12132682	      0.54924775	     -0.15863188	      0.16136467	      0.58357574	     -0.14033510	      0.29499404	      0.58357574	     -0.09762553	      0.29499404	      0.48059178	     -0.07932021	      0.24740966	      0.44626380	     -0.04880850	      0.18793525	      0.41193581	     -0.61014037	      1.37247328	      3.05475123	      0.00000000	      0.00000000	     -0.00000000	      0.00000000	      0.00000000	     67.16925787	     -8.94208160	      6.47579663	     34.66973907	     21.20872091	      0.00000000	      5.00000207	     68.47421641	     -4.55432901	      7.39239721	     30.59651315	     26.34634533	      0.00000000	      5.00000207
      3.78300000	    -49.02589313	     -1.02103682	     -2.01590446	     -0.35533061	      0.98202672	      0.02839496	    118.47143822	     -7.98609409	      2.52927402	    114.71035678	      2.00207341	     10.42981105	     -1.05961993	      0.00000000	    101.13519865	     -6.67426276	      3.00981648	     56.93956812	      0.99378294	      3.77032702	      5.18671030	      0.00000000	     -0.08775304	      0.19992047	      0.65981642	     -0.16296617	      0.26589423	      0.70105495	     -0.14416947	      0.48608664	      0.70105495	     -0.10029295	      0.48608664	      0.57733937	     -0.08148747	      0.40767783	      0.53610084	     -0.05014209	      0.30967681	      0.49486232	     -0.62681117	      2.26154037	      3.66970100	      0.00000000	      0.00000000	     -0.00000000	      0.00000000	      0.00000000	     67.42483281	     -8.94749711	      6.70333926	     34.69169206	     21.32290154	      0.00000000	      5.00000204	     68.26945560	     -4.55627016	      7.20025807	     30.67130724	     26.36456468	      0.00000000	      5.00000204
      3.79200000	    -49.06806694	     -1.30386116	     -2.52825222	     -0.35540227	      0.98199071	      0.02851204	    120.41538864	     -7.74789797	      2.21959375	    116.20974294	      2.02824264	     11.49488140	     -1.25103661	      0.00000000	     99.52330552	     -7.00427787	      3.56609476	     55.40500367	      0.96699974	      2.93283027	      4.67061228	      0.00000000	     -0.08733409	      0.26444281	      0.73527002	     -0.16218814	      0.35170893	      0.78122439	     -0.14348118	      0.64296624	      0.78122439	     -0.09981413	      0.64296624	      0.64336126	     -0.08109844	      0.53925177	      0.59740689	     -0.04990270	      0.40962191	      0.55145251	     -0.62381868	      2.99142993	      4.08935125	      0.00000000	      0.00000000	     -0.00000000	      0.00000000	      0.00000000	     67.68147945	     -8.92322645	      7.06462391	     34.64084828	     21.42936878	      0.00000000	      5.00000201	     68.08562934	     -4.62372238	      6.92517032	     30.71838696	     26.35167010	      0.00000000	      5.00000201
      3.80000000	    -49.13355964	     -1.58008351	     -2.79278478	     -0.35553063	      0.98206599	      0.02810928	    122.35534847	     -7.83693893	      1.95237029	    117.45828999	      2.05003389	     12.65053325	     -1.26910347	      0.00000000	     98.09465126	     -6.98500677	      4.03008932	     54.12722542	      0.94469830	      1.14162041	      2.38433445	      0.00000000	     -0.08542390	      0.32881844	      0.74703847	     -0.15864072	      0.43732853	      0.79372837	     -0.14034292	      0.79948916	      0.79372837	     -0.09763097	      0.79948916	      0.65365866	     -0.07932463	      0.67052657	      0.60696876	     -0.04881122	      0.50933977	      0.56027885	     -0.61017436	      3.71966000	      4.15480386	      0.00000000	      0.00000000	     -0.00000000	      0.00000000	      0.00000000	     68.16641095	     -9.18026860	      9.17544104	     34.28101771	     21.65566961	      0.00000000	      5.00000189	     67.78029607	     -4.52881011	      5.36645454	     30.95555330	     25.99425246	      0.00000000	      5.00000189
      3.80800000	    -49.20843949	     -1.75564096	     -3.34099758	     -0.35566055	      0.98239999	      0.02840468	    124.22466145	     -7.61389192	      1.48007286	    118.27448400	      2.06427917	     13.39504032	     -1.55812964	      0.00000000	     96.71050667	     -7.44155234	      4.48267857	     53.04175479	      0.92575326	      0.54955404	      2.31793177	      0.00000000	     -0.08629173	      0.37443406	      0.81864117	     -0.16025238	      0.49799730	      0.86980624	     -0.14176869	      0.91039897	      0.86980624	     -0.09862282	      0.91039897	      0.71631102	     -0.08013050	      0.76354593	      0.66514595	     -0.04930710	      0.57999836	      0.61398088	     -0.61637323	      4.23567296	      4.55303658	      0.00000000	      0.00000000	     -0.00000000	      0.00000000	      0.00000000	     68.40344757	     -9.06668140	      9.37160485	     34.19375878	     21.70292970	      0.00000000	      5.00000187	     67.64536491	     -4.67877140	      5.20542278	     30.97022325	     25.97892044	      0.00000000	      5.00000187
      3.81700000	    -49.30084184	     -1.82914981	     -3.81242485	     -0.35580845	      0.98290755	      0.02866380	    126.03372591	     -7.45775514	      1.01172213	    118.74599082	      2.07250851	     14.00580283	     -1.91874302	      0.00000000	     95.43323514	     -7.83710994	      4.78960846	     52.17982639	      0.91070977	     -0.08808768	      2.15910933	      0.00000000	     -0.08563745	      0.40558883	      0.87140564	     -0.15903731	      0.53943314	      0.92586850	     -0.14069377	      0.98614868	      0.92586850	     -0.09787504	      0.98614868	      0.76247994	     -0.07952294	      0.82707674	      0.70801709	     -0.04893324	      0.62825709	      0.65355423	     -0.61169974	      4.58810194	      4.84649677	      0.00000000	      0.00000000	     -0.00000000	      0.00000000	      0.00000000	     68.63195026	     -8.92366602	      9.66195731	     34.04879829	     21.75270796	      0.00000000	      5.00000185	     67.52272439	     -4.87135457	      5.00958147	     30.99860214	     25.95134650	      0.00000000	      5.00000185
      3.82500000	    -49.39282874	     -1.71126243	     -4.16593710	     -0.35599377	      0.98349934	      0.02888845	    127.83958419	     -7.31689885	      0.55353125	    118.91368865	      2.07543539	     13.94973189	     -3.29811537	      0.00000000	     94.29337827	     -8.12769280	      4.68243394	     51.61272258	      0.90081194	     -1.20173537	      0.98479178	      0.00000000	     -0.08656084	      0.40823292	      0.90100232	     -0.16075213	      0.54294979	      0.95731497	     -0.14221080	      0.99257753	      0.95731497	     -0.09893038	      0.99257753	      0.78837703	     -0.08038039	      0.83246858	      0.73206439	     -0.04946086	      0.63235280	      0.67575174	     -0.61829540	      4.61801249	      5.01110460	      0.00000000	      0.00000000	     -0.00000000	      0.00000000	      0.00000000	     68.98205584	     -9.00108933	     11.13767223	     33.70443372	     21.86941323	      0.00000000	      5.00000175	     67.37626675	     -4.95482707	      4.13098796	     31.16960245	     25.70541111	      0.00000000	      5.00000175
